<svg xmlns="http://www.w3.org/2000/svg" viewBox="0 0 494.19 52.97"><defs><style>.cls-1{fill:#1d1d1b;}.cls-2{fill:#e94734;}.cls-3{fill:#0071b9;}</style></defs><title>Resurs 1</title><g id="Lager_2" data-name="Lager 2"><g id="Lager_1-2" data-name="Lager 1"><path class="cls-1" d="M33.86,37.54a19.64,19.64,0,0,1-1.17,7.22,11.26,11.26,0,0,1-3.5,4.78,14.31,14.31,0,0,1-5.72,2.63,34.27,34.27,0,0,1-7.75.79q-2.33,0-4.7-.19t-4.48-.45a36.74,36.74,0,0,1-3.72-.64,11.38,11.38,0,0,1-2.37-.75L.9,44.27c1.18.24,1.76.34,2.59.5,1,.2,2.1.4,3.3.6s2.44.35,3.72.45,2.54.15,3.8.15c3.81,0,6.54-.51,8.25-1.81a6.68,6.68,0,0,0,2.56-5.64,9,9,0,0,0-.68-3.65,6.92,6.92,0,0,0-2-2.63A11.25,11.25,0,0,0,19,30.43a35.94,35.94,0,0,0-5-1.24,34.51,34.51,0,0,1-6.1-1.58A12.5,12.5,0,0,1,3.54,25,10.64,10.64,0,0,1,.9,20.84,18.2,18.2,0,0,1,0,14.67,16.14,16.14,0,0,1,1.28,7.9,11.77,11.77,0,0,1,4.89,3.35,15,15,0,0,1,10.46.79,30.11,30.11,0,0,1,17.61,0q2.18,0,4.48.19t4.33.49q2,.3,3.54.68A14.77,14.77,0,0,1,32.13,2l-.45,6.55c-.93-.23-1.68-.37-2.22-.5-.93-.22-2-.44-3.08-.64S24,7.08,22.76,7,20.24,6.77,19,6.77q-5.64,0-8.05,2a6.57,6.57,0,0,0-2.41,5.27A6.53,6.53,0,0,0,11.1,19.6q2.52,1.92,8.39,3a41.53,41.53,0,0,1,6.25,1.66,12.93,12.93,0,0,1,4.51,2.67A10.5,10.5,0,0,1,33,31.15a19.43,19.43,0,0,1,.9,6.4"/><path class="cls-1" d="M105.37,50.47a60.35,60.35,0,0,1-7.22,1.69,52.35,52.35,0,0,1-9.33.79,32.87,32.87,0,0,1-7.45-.71,12.22,12.22,0,0,1-4.82-2.14A8,8,0,0,1,74,46.45a15.37,15.37,0,0,1-.79-5.15,12.59,12.59,0,0,1,.94-4.89,9.3,9.3,0,0,1,3.2-3.91,17.24,17.24,0,0,1,6-2.6A39.13,39.13,0,0,1,92.66,29h4.89V25.49a9.93,9.93,0,0,0-.41-3,4.22,4.22,0,0,0-1.5-2.14,8,8,0,0,0-3-1.28,22.55,22.55,0,0,0-5-.45,32.75,32.75,0,0,0-5.94.53,46.13,46.13,0,0,0-4.51,1l-.45-5.59q.68-.23,2-.56T82,13.38q1.88-.3,4.18-.53T91,12.63a29.48,29.48,0,0,1,6.58.64,10.49,10.49,0,0,1,4.48,2.11,8.4,8.4,0,0,1,2.52,3.8,17.69,17.69,0,0,1,.79,5.64ZM97.55,46V33.77H93.41a27.33,27.33,0,0,0-6.4.6,10.59,10.59,0,0,0-3.72,1.58,4.81,4.81,0,0,0-1.77,2.29A8.41,8.41,0,0,0,81.07,41a9,9,0,0,0,.34,2.52,4,4,0,0,0,1.24,2,6.39,6.39,0,0,0,2.48,1.24,15.48,15.48,0,0,0,4.14.45,26.66,26.66,0,0,0,4.33-.38q2.29-.37,4-.75"/><path class="cls-1" d="M190.61,32.34c0,.2,0,.55-.08,1.05s-.07.83-.07,1l-24.9.08a28.67,28.67,0,0,0,.38,4.74,9.65,9.65,0,0,0,1.54,3.95,7.9,7.9,0,0,0,3.27,2.67,13.55,13.55,0,0,0,5.64,1q1.65,0,3.39-.15t3.24-.38q1.5-.23,2.75-.49c.83-.18,1.08-.21,2-.44l.45,5.75a34.09,34.09,0,0,1-5.34,1.24,57.35,57.35,0,0,1-9.48.64,19.26,19.26,0,0,1-7.67-1.32,11.21,11.21,0,0,1-4.82-3.91,16.44,16.44,0,0,1-2.52-6.47,49.52,49.52,0,0,1-.71-8.92q0-9.63,3.95-14.67t13-5a19.9,19.9,0,0,1,7.6,1.28,11.73,11.73,0,0,1,5,3.76,15.41,15.41,0,0,1,2.67,6.17,40.85,40.85,0,0,1,.79,8.5m-7.45-2.93a37.91,37.91,0,0,0-.38-4.14,9.53,9.53,0,0,0-1.21-3.54,6.79,6.79,0,0,0-2.6-2.45,9.58,9.58,0,0,0-4.63-.94,9.81,9.81,0,0,0-4.66.94,6.64,6.64,0,0,0-2.63,2.48,9.83,9.83,0,0,0-1.2,3.54,36,36,0,0,0-.38,4.1Z"/><path class="cls-1" d="M266,32.34c0,.2,0,.55-.08,1.05s-.08.83-.08,1l-24.9.08a28.67,28.67,0,0,0,.38,4.74,9.65,9.65,0,0,0,1.54,3.95,7.9,7.9,0,0,0,3.27,2.67,13.55,13.55,0,0,0,5.64,1q1.65,0,3.39-.15t3.24-.38q1.51-.23,2.75-.49c.83-.18,1.48-.29,2-.44l.45,5.75a34.09,34.09,0,0,1-5.34,1.24,57.35,57.35,0,0,1-9.48.64,19.27,19.27,0,0,1-7.67-1.32,11.2,11.2,0,0,1-4.82-3.91,16.44,16.44,0,0,1-2.52-6.47,49.42,49.42,0,0,1-.71-8.92q0-9.63,4-14.67t13-5a19.91,19.91,0,0,1,7.6,1.28,11.73,11.73,0,0,1,5,3.76,15.41,15.41,0,0,1,2.67,6.17,40.85,40.85,0,0,1,.79,8.5m-7.45-2.93a37.18,37.18,0,0,0-.38-4.14,9.48,9.48,0,0,0-1.2-3.54,6.79,6.79,0,0,0-2.59-2.45,9.59,9.59,0,0,0-4.63-.94,9.82,9.82,0,0,0-4.67.94,6.65,6.65,0,0,0-2.63,2.48,9.85,9.85,0,0,0-1.2,3.54,36.23,36.23,0,0,0-.38,4.1Z"/><path class="cls-1" d="M326.14,50.47a60.28,60.28,0,0,1-7.22,1.69,52.35,52.35,0,0,1-9.33.79,32.88,32.88,0,0,1-7.45-.71,12.21,12.21,0,0,1-4.81-2.14,8,8,0,0,1-2.6-3.65,15.34,15.34,0,0,1-.79-5.15,12.59,12.59,0,0,1,.94-4.89,9.28,9.28,0,0,1,3.2-3.91,17.24,17.24,0,0,1,6-2.6,39.14,39.14,0,0,1,9.37-.94h4.89V25.49a9.9,9.9,0,0,0-.42-3,4.21,4.21,0,0,0-1.5-2.14,8,8,0,0,0-3-1.28,22.56,22.56,0,0,0-5-.45,32.75,32.75,0,0,0-5.94.53c-1.91.35-3.33.65-4.52,1l-.45-5.58q.68-.23,2-.56t3.24-.64q1.88-.3,4.17-.53t4.85-.22a29.48,29.48,0,0,1,6.58.64,10.48,10.48,0,0,1,4.47,2.11,8.39,8.39,0,0,1,2.52,3.8,17.69,17.69,0,0,1,.79,5.64ZM318.31,46V33.77h-4.14a27.34,27.34,0,0,0-6.4.6,10.61,10.61,0,0,0-3.72,1.58,4.81,4.81,0,0,0-1.77,2.29,8.39,8.39,0,0,0-.45,2.75,9,9,0,0,0,.34,2.52,4,4,0,0,0,1.24,2,6.4,6.4,0,0,0,2.48,1.24,15.5,15.5,0,0,0,4.14.45,26.66,26.66,0,0,0,4.32-.38q2.3-.37,4-.75"/><path class="cls-1" d="M378.24,50.47A60.35,60.35,0,0,1,371,52.16a52.35,52.35,0,0,1-9.33.79,32.87,32.87,0,0,1-7.45-.71,12.22,12.22,0,0,1-4.82-2.14,8,8,0,0,1-2.6-3.65,15.34,15.34,0,0,1-.79-5.15A12.59,12.59,0,0,1,347,36.4a9.27,9.27,0,0,1,3.2-3.91,17.24,17.24,0,0,1,6-2.6,39.14,39.14,0,0,1,9.37-.94h4.89V25.49a10,10,0,0,0-.41-3,4.23,4.23,0,0,0-1.51-2.14,8,8,0,0,0-3-1.28,22.55,22.55,0,0,0-5-.45,32.76,32.76,0,0,0-5.94.53c-1.91.35-3.25.63-4.51,1l-.45-5.59q.68-.23,2-.56t3.24-.64q1.88-.3,4.18-.53t4.85-.22a29.48,29.48,0,0,1,6.58.64,10.5,10.5,0,0,1,4.48,2.11,8.41,8.41,0,0,1,2.52,3.8,17.69,17.69,0,0,1,.79,5.64ZM370.41,46V33.77h-4.14a27.33,27.33,0,0,0-6.4.6,10.58,10.58,0,0,0-3.72,1.58,4.8,4.8,0,0,0-1.77,2.29,8.41,8.41,0,0,0-.45,2.75,9,9,0,0,0,.34,2.52,4,4,0,0,0,1.24,2A6.4,6.4,0,0,0,358,46.71a15.49,15.49,0,0,0,4.14.45,26.69,26.69,0,0,0,4.33-.38q2.29-.37,3.95-.75"/><path class="cls-1" d="M476.74,50.47a60.35,60.35,0,0,1-7.22,1.69,52.35,52.35,0,0,1-9.33.79,32.87,32.87,0,0,1-7.45-.71,12.22,12.22,0,0,1-4.82-2.14,8,8,0,0,1-2.6-3.65,15.34,15.34,0,0,1-.79-5.15,12.59,12.59,0,0,1,.94-4.89,9.27,9.27,0,0,1,3.2-3.91,17.24,17.24,0,0,1,6-2.6A39.14,39.14,0,0,1,464,29h4.89V25.49a10,10,0,0,0-.41-3A4.23,4.23,0,0,0,467,20.38a8,8,0,0,0-3-1.28,22.55,22.55,0,0,0-5-.45,32.76,32.76,0,0,0-5.94.53c-1.91.35-3.37.66-4.51,1l-.45-5.59q.68-.23,2-.56t3.24-.64q1.88-.3,4.18-.53t4.85-.22a29.48,29.48,0,0,1,6.58.64,10.5,10.5,0,0,1,4.48,2.11,8.41,8.41,0,0,1,2.52,3.8,17.69,17.69,0,0,1,.79,5.64ZM468.91,46V33.77h-4.14a27.33,27.33,0,0,0-6.4.6,10.58,10.58,0,0,0-3.72,1.58,4.8,4.8,0,0,0-1.77,2.29,8.41,8.41,0,0,0-.45,2.75,9,9,0,0,0,.34,2.52,4,4,0,0,0,1.24,2,6.4,6.4,0,0,0,2.48,1.24,15.49,15.49,0,0,0,4.14.45,26.69,26.69,0,0,0,4.33-.38q2.29-.37,3.95-.75"/><path class="cls-1" d="M404,12.93l-.45,6.32q-.45-.07-1.84-.15T399,19a22.54,22.54,0,0,0-6.85,1.05v32h-8V15.11a21.54,21.54,0,0,1,2.37-.79q1.47-.41,3.31-.79t3.91-.64a32.53,32.53,0,0,1,4.1-.26q2.18,0,3.91.07a12.45,12.45,0,0,1,2.26.23"/><path class="cls-1" d="M440.73,52.05h-8V32.34a48.66,48.66,0,0,0-.38-6.73A10.25,10.25,0,0,0,431,21.5a5,5,0,0,0-2.67-2.07,13.92,13.92,0,0,0-4.33-.57,24.88,24.88,0,0,0-4,.34,32.61,32.61,0,0,0-3.65.79V52.05h-8V15.11a57.36,57.36,0,0,1,7-1.69,49.56,49.56,0,0,1,9.07-.79,31,31,0,0,1,8.46.94,9.23,9.23,0,0,1,4.93,3.24,13.22,13.22,0,0,1,2.29,6.1,65.81,65.81,0,0,1,.56,9.44Z"/><path class="cls-1" d="M55.31,30.61,71.56,13.53H62.23L47.48,29.33V.91q-1.19.18-2.3.41-1.84.38-3.31.79a21.75,21.75,0,0,0-2.37.79V52.05h8V32.26L63.36,52.05h9.86Z"/><path class="cls-1" d="M225.4,17.59q-3.72-5-12.38-5a33.84,33.84,0,0,0-6.06.49,29.19,29.19,0,0,0-4.18,1V.91q-1.19.18-2.3.41-1.84.38-3.31.79a21.86,21.86,0,0,0-2.37.79V50.47a34.33,34.33,0,0,0,6.7,1.77,54.85,54.85,0,0,0,9.4.71,24.73,24.73,0,0,0,8.46-1.28A12.87,12.87,0,0,0,225,47.8a16.24,16.24,0,0,0,3.12-6.47,37,37,0,0,0,1-9q0-9.78-3.72-14.75m-4.63,20.16a13.31,13.31,0,0,1-1.2,4.67,7.76,7.76,0,0,1-2.86,3.23,9.73,9.73,0,0,1-5.27,1.2,31.76,31.76,0,0,1-5-.38,16.92,16.92,0,0,1-3.65-.9V19.92a19.68,19.68,0,0,1,3.5-.83,32.12,32.12,0,0,1,5.15-.38,9.87,9.87,0,0,1,5.15,1.17,7.68,7.68,0,0,1,2.9,3,12.18,12.18,0,0,1,1.24,4.36,47.65,47.65,0,0,1,.26,5q0,2.78-.23,5.42"/><path class="cls-1" d="M340.47.91q-1.19.19-2.3.41-1.84.38-3.31.79a21.85,21.85,0,0,0-2.37.79V52.05h8Z"/><path class="cls-1" d="M130.33,46.61c-.3,0-.41,0-.79.06l-1.32.08-1.51.08q-.75,0-1.35,0-3.69,0-4.89-1.39a5.61,5.61,0,0,1-1.2-3.8V19.47H130V13.53H119.27V4.35q-1.19.19-2.29.41-1.84.38-3.31.79a22.13,22.13,0,0,0-2.37.79V40.91a26.6,26.6,0,0,0,.45,5.19,7.49,7.49,0,0,0,5.64,6.09A23.56,23.56,0,0,0,124,53a38,38,0,0,0,4.06-.23,14.22,14.22,0,0,0,2.71-.45Z"/><path class="cls-1" d="M155,46.61c-.31,0-.41,0-.79.06l-1.32.08-1.51.08q-.75,0-1.35,0-3.69,0-4.89-1.39a5.61,5.61,0,0,1-1.2-3.8V19.47h10.76V13.53H143.89V4.35q-1.19.19-2.29.41-1.84.38-3.31.79a22.13,22.13,0,0,0-2.37.79V40.91a26.6,26.6,0,0,0,.45,5.19A7.49,7.49,0,0,0,142,52.2a23.56,23.56,0,0,0,6.62.75,38,38,0,0,0,4.06-.23,14.22,14.22,0,0,0,2.71-.45Z"/><path class="cls-1" d="M290.28,46.6a7.21,7.21,0,0,1-.79.07l-1.32.08-1.51.08c-.5,0-1,0-1.35,0q-3.69,0-4.89-1.39a5.61,5.61,0,0,1-1.2-3.8V19.47H290V13.53H279.22V4.35q-1.19.19-2.29.41-1.84.38-3.31.79a21.9,21.9,0,0,0-2.37.79V40.91a26.59,26.59,0,0,0,.45,5.19,7.48,7.48,0,0,0,5.64,6.09A23.57,23.57,0,0,0,284,53a38,38,0,0,0,4.06-.23,14.12,14.12,0,0,0,2.71-.45Z"/><path class="cls-2" d="M494.19,22.74a5.68,5.68,0,0,1-1.05,3.64q-1.05,1.31-3.67,1.31t-3.67-1.31a5.66,5.66,0,0,1-1.05-3.64,5.14,5.14,0,0,1,1.09-3.45,5.83,5.83,0,0,1,7.28,0,5.15,5.15,0,0,1,1.09,3.45"/><path class="cls-3" d="M494.19,47.1a5.68,5.68,0,0,1-1.05,3.64q-1.05,1.31-3.67,1.31t-3.67-1.31a5.67,5.67,0,0,1-1.05-3.64,5.14,5.14,0,0,1,1.09-3.45,5.83,5.83,0,0,1,7.28,0,5.15,5.15,0,0,1,1.09,3.45"/></g></g></svg>